<svg width="144" height="62" viewBox="0 0 144 62" fill="none" xmlns="http://www.w3.org/2000/svg">
<path d="M19.8586 37.2138C19.8586 36.6792 19.7747 36.2075 19.607 35.7987C19.4498 35.3794 19.1668 35.002 18.758 34.6666C18.3596 34.3312 17.8041 34.0115 17.0913 33.7075C16.389 33.4035 15.498 33.0943 14.4183 32.7798C13.2862 32.4444 12.2642 32.0723 11.3522 31.6634C10.4403 31.2442 9.65936 30.7672 9.00946 30.2326C8.35956 29.698 7.86165 29.0848 7.51574 28.393C7.16983 27.7012 6.99687 26.9097 6.99687 26.0188C6.99687 25.1278 7.18031 24.3049 7.54719 23.5502C7.91407 22.7955 8.43818 22.1403 9.11952 21.5848C9.81135 21.0187 10.6342 20.5785 11.5881 20.264C12.542 19.9495 13.6059 19.7923 14.7799 19.7923C16.499 19.7923 17.9561 20.1225 19.151 20.7829C20.3565 21.4328 21.2737 22.2871 21.9026 23.3458C22.5316 24.394 22.846 25.5156 22.846 26.7106H19.8271C19.8271 25.851 19.6437 25.0911 19.2768 24.4307C18.9099 23.7598 18.3544 23.2357 17.6101 22.8584C16.8659 22.4705 15.9225 22.2766 14.7799 22.2766C13.7003 22.2766 12.8093 22.4391 12.107 22.764C11.4047 23.089 10.8805 23.5292 10.5346 24.0848C10.1992 24.6403 10.0315 25.2745 10.0315 25.9873C10.0315 26.4695 10.1311 26.9097 10.3302 27.3081C10.5399 27.6959 10.8596 28.0576 11.2894 28.393C11.7296 28.7284 12.2852 29.0376 12.956 29.3207C13.6374 29.6037 14.4497 29.8762 15.3932 30.1383C16.693 30.5052 17.8146 30.914 18.758 31.3647C19.7014 31.8154 20.477 32.3238 21.085 32.8899C21.7035 33.4454 22.1594 34.0796 22.4529 34.7924C22.7569 35.4947 22.9089 36.2914 22.9089 37.1824C22.9089 38.1153 22.7202 38.9591 22.3429 39.7138C21.9655 40.4685 21.4257 41.1132 20.7234 41.6478C20.0211 42.1824 19.1772 42.5964 18.1919 42.8899C17.2171 43.173 16.1269 43.3145 14.9215 43.3145C13.8627 43.3145 12.8198 43.1677 11.7925 42.8742C10.7757 42.5807 9.84804 42.1405 9.00946 41.5534C8.18136 40.9664 7.51574 40.2432 7.01259 39.3836C6.51993 38.5136 6.27359 37.5073 6.27359 36.3647H9.29248C9.29248 37.1509 9.44447 37.827 9.74846 38.3931C10.0524 38.9486 10.4665 39.4098 10.9906 39.7767C11.5252 40.1436 12.1279 40.4161 12.7988 40.5943C13.4801 40.762 14.1877 40.8459 14.9215 40.8459C15.9802 40.8459 16.8764 40.6991 17.6101 40.4056C18.3439 40.1121 18.8995 39.6928 19.2768 39.1478C19.6647 38.6027 19.8586 37.958 19.8586 37.2138ZM36.3681 40.0912V31.3333C36.3681 30.6624 36.2319 30.0806 35.9593 29.588C35.6973 29.0848 35.2989 28.697 34.7644 28.4244C34.2298 28.1519 33.5694 28.0156 32.7832 28.0156C32.0494 28.0156 31.4048 28.1414 30.8492 28.393C30.3042 28.6446 29.8744 28.9747 29.5599 29.3836C29.2559 29.7924 29.1039 30.2326 29.1039 30.7043H26.1951C26.1951 30.0963 26.3523 29.4936 26.6668 28.8961C26.9813 28.2986 27.432 27.7588 28.019 27.2766C28.6165 26.784 29.3293 26.3961 30.1574 26.1131C30.996 25.8196 31.9289 25.6728 32.9562 25.6728C34.1931 25.6728 35.2832 25.8825 36.2266 26.3018C37.1805 26.7211 37.9247 27.3552 38.4593 28.2043C39.0044 29.0429 39.277 30.0963 39.277 31.3647V39.2893C39.277 39.8553 39.3241 40.4581 39.4185 41.0975C39.5233 41.7369 39.6753 42.2872 39.8744 42.7484V43H36.8398C36.6931 42.6646 36.5778 42.2191 36.4939 41.6635C36.4101 41.0975 36.3681 40.5734 36.3681 40.0912ZM36.8713 32.6855L36.9027 34.7295H33.9625C33.1344 34.7295 32.3954 34.7976 31.7455 34.9339C31.0956 35.0597 30.5505 35.2536 30.1102 35.5157C29.67 35.7777 29.3345 36.1079 29.1039 36.5062C28.8733 36.8941 28.758 37.3501 28.758 37.8742C28.758 38.4088 28.8786 38.8962 29.1197 39.3365C29.3608 39.7767 29.7224 40.1279 30.2046 40.3899C30.6972 40.6415 31.3 40.7673 32.0128 40.7673C32.9038 40.7673 33.6899 40.5786 34.3713 40.2012C35.0526 39.8239 35.5924 39.3627 35.9908 38.8176C36.3996 38.2725 36.6197 37.7432 36.6512 37.2295L37.8933 38.6289C37.8199 39.0692 37.6208 39.5566 37.2958 40.0912C36.9709 40.6258 36.5359 41.1394 35.9908 41.6321C35.4562 42.1142 34.8168 42.5178 34.0725 42.8428C33.3388 43.1572 32.5107 43.3145 31.5882 43.3145C30.4352 43.3145 29.4236 43.0891 28.5536 42.6384C27.6941 42.1876 27.0232 41.5849 26.541 40.8302C26.0693 40.065 25.8335 39.2107 25.8335 38.2673C25.8335 37.3553 26.0117 36.5534 26.3681 35.8616C26.7245 35.1593 27.2381 34.5775 27.909 34.1163C28.5798 33.6446 29.387 33.2882 30.3304 33.0471C31.2738 32.806 32.3272 32.6855 33.4908 32.6855H36.8713ZM48.7739 40.3742L53.428 25.9873H56.3997L50.2833 43H48.3336L48.7739 40.3742ZM44.8902 25.9873L49.6858 40.4528L50.016 43H48.0663L41.9028 25.9873H44.8902ZM66.0381 43.3145C64.8536 43.3145 63.7792 43.1153 62.8149 42.717C61.861 42.3082 61.0381 41.7369 60.3463 41.0031C59.6649 40.2694 59.1408 39.3993 58.7739 38.3931C58.4071 37.3868 58.2236 36.2861 58.2236 35.0911V34.4308C58.2236 33.0471 58.428 31.8154 58.8368 30.7358C59.2456 29.6456 59.8012 28.7232 60.5035 27.9685C61.2058 27.2137 62.0025 26.6424 62.8935 26.2546C63.7845 25.8668 64.7069 25.6728 65.6608 25.6728C66.8767 25.6728 67.9249 25.8825 68.8055 26.3018C69.6964 26.7211 70.425 27.3081 70.991 28.0628C71.557 28.807 71.9763 29.6875 72.2489 30.7043C72.5214 31.7106 72.6577 32.8113 72.6577 34.0062V35.3113H59.9532V32.937H69.7489V32.7169C69.7069 31.9622 69.5497 31.2284 69.2772 30.5156C69.0151 29.8028 68.5958 29.2158 68.0193 28.7546C67.4428 28.2934 66.6566 28.0628 65.6608 28.0628C65.0004 28.0628 64.3924 28.2043 63.8369 28.4873C63.2813 28.7599 62.8044 29.1687 62.406 29.7137C62.0077 30.2588 61.6985 30.9244 61.4784 31.7106C61.2582 32.4968 61.1482 33.4035 61.1482 34.4308V35.0911C61.1482 35.8983 61.2582 36.6582 61.4784 37.371C61.709 38.0733 62.0392 38.6918 62.4689 39.2264C62.9092 39.761 63.4385 40.1803 64.057 40.4843C64.6859 40.7882 65.3987 40.9402 66.1954 40.9402C67.2226 40.9402 68.0927 40.7306 68.8055 40.3113C69.5183 39.892 70.1419 39.3312 70.6765 38.6289L72.4376 40.0283C72.0707 40.5838 71.6042 41.1132 71.0382 41.6163C70.4721 42.1195 69.7751 42.5283 68.947 42.8428C68.1294 43.1572 67.1597 43.3145 66.0381 43.3145ZM100.913 34.022H94.7962V31.5534H100.913C102.097 31.5534 103.056 31.3647 103.79 30.9873C104.524 30.61 105.058 30.0859 105.394 29.415C105.74 28.7441 105.913 27.9789 105.913 27.1194C105.913 26.3332 105.74 25.5942 105.394 24.9024C105.058 24.2106 104.524 23.655 103.79 23.2357C103.056 22.8059 102.097 22.5911 100.913 22.5911H95.5038V43H92.4691V20.1068H100.913C102.642 20.1068 104.104 20.4055 105.299 21.003C106.494 21.6005 107.401 22.4286 108.02 23.4873C108.638 24.5355 108.947 25.7357 108.947 27.0879C108.947 28.5555 108.638 29.8081 108.02 30.8458C107.401 31.8836 106.494 32.675 105.299 33.2201C104.104 33.7547 102.642 34.022 100.913 34.022ZM119.183 43.3145C117.999 43.3145 116.924 43.1153 115.96 42.717C115.006 42.3082 114.183 41.7369 113.491 41.0031C112.81 40.2694 112.286 39.3993 111.919 38.3931C111.552 37.3868 111.369 36.2861 111.369 35.0911V34.4308C111.369 33.0471 111.573 31.8154 111.982 30.7358C112.391 29.6456 112.946 28.7232 113.649 27.9685C114.351 27.2137 115.147 26.6424 116.038 26.2546C116.929 25.8668 117.852 25.6728 118.806 25.6728C120.022 25.6728 121.07 25.8825 121.95 26.3018C122.841 26.7211 123.57 27.3081 124.136 28.0628C124.702 28.807 125.121 29.6875 125.394 30.7043C125.666 31.7106 125.803 32.8113 125.803 34.0062V35.3113H113.098V32.937H122.894V32.7169C122.852 31.9622 122.695 31.2284 122.422 30.5156C122.16 29.8028 121.741 29.2158 121.164 28.7546C120.588 28.2934 119.802 28.0628 118.806 28.0628C118.145 28.0628 117.537 28.2043 116.982 28.4873C116.426 28.7599 115.949 29.1687 115.551 29.7137C115.153 30.2588 114.844 30.9244 114.623 31.7106C114.403 32.4968 114.293 33.4035 114.293 34.4308V35.0911C114.293 35.8983 114.403 36.6582 114.623 37.371C114.854 38.0733 115.184 38.6918 115.614 39.2264C116.054 39.761 116.584 40.1803 117.202 40.4843C117.831 40.7882 118.544 40.9402 119.34 40.9402C120.368 40.9402 121.238 40.7306 121.95 40.3113C122.663 39.892 123.287 39.3312 123.822 38.6289L125.583 40.0283C125.216 40.5838 124.749 41.1132 124.183 41.6163C123.617 42.1195 122.92 42.5283 122.092 42.8428C121.274 43.1572 120.305 43.3145 119.183 43.3145ZM136.322 25.9873V28.22H127.123V25.9873H136.322ZM130.237 21.8521H133.146V38.7861C133.146 39.3627 133.235 39.7977 133.413 40.0912C133.591 40.3847 133.822 40.5786 134.105 40.6729C134.388 40.7673 134.692 40.8145 135.017 40.8145C135.258 40.8145 135.509 40.7935 135.771 40.7516C136.044 40.6991 136.248 40.6572 136.385 40.6258L136.4 43C136.17 43.0734 135.866 43.1415 135.488 43.2044C135.121 43.2778 134.676 43.3145 134.152 43.3145C133.439 43.3145 132.784 43.173 132.186 42.8899C131.589 42.6069 131.112 42.1352 130.756 41.4748C130.41 40.804 130.237 39.9025 130.237 38.7704V21.8521Z" fill="white"/>
<path d="M81.9297 48.2734V14.5625H84.9961V48.2734H81.9297Z" fill="#E8002E"/>
<path d="M81.9297 48.2734H80.4297V49.7734H81.9297V48.2734ZM81.9297 14.5625V13.0625H80.4297V14.5625H81.9297ZM84.9961 14.5625H86.4961V13.0625H84.9961V14.5625ZM84.9961 48.2734V49.7734H86.4961V48.2734H84.9961ZM83.4297 48.2734V14.5625H80.4297V48.2734H83.4297ZM81.9297 16.0625H84.9961V13.0625H81.9297V16.0625ZM83.4961 14.5625V48.2734H86.4961V14.5625H83.4961ZM84.9961 46.7734H81.9297V49.7734H84.9961V46.7734Z" fill="#E8002E"/>
</svg>
